<?xml version="1.0" encoding="UTF-8" standalone="no"?>
<svg width="156px" height="116px" viewBox="0 0 156 116" version="1.1" xmlns="http://www.w3.org/2000/svg" xmlns:xlink="http://www.w3.org/1999/xlink">
    <!-- Generator: Sketch 3.8.2 (29753) - http://www.bohemiancoding.com/sketch -->
    <title>b</title>
    <desc>Created with Sketch.</desc>
    <defs></defs>
    <g id="Welcome" stroke="none" stroke-width="1" fill="none" fill-rule="evenodd">
        <g id="checkyourself-copy-3" transform="translate(-522.000000, -770.000000)">
            <g id="b" transform="translate(522.000000, 770.000000)">
                <path d="M2.73995062,57.7839292 C-10.1889309,0.1948513 26.2969773,47.9685014 36.1124051,21.4668464 C45.9278329,-5.03480862 52.7986323,-4.05326584 64.5771457,8.70679027 C76.355659,21.4668464 86.1710868,-11.9056081 96.9680573,4.78061916 C107.765028,21.4668464 163.712966,2.8175336 144.082111,25.3930175 C124.451255,47.9685014 141.137482,87.2302125 124.451255,67.599357 C107.765028,47.9685014 97.9496001,59.7470148 104.8204,80.3594131 C111.691199,100.971811 106.783485,123.547295 94.023429,99.0087259 C81.2633729,74.4701564 62.6140601,124.528838 56.7248034,93.1194692 C50.8355468,61.7101003 13.5369212,105.879525 2.73995062,57.7839292" id="border" fill="#7C5A63" opacity="0.574160448"></path>
                <path d="M7.73995062,60.7839292 C-5.18893086,3.1948513 31.2969773,50.9685014 41.1124051,24.4668464 C50.9278329,-2.03480862 57.7986323,-1.05326584 69.5771457,11.7067903 C81.355659,24.4668464 91.1710868,-8.90560807 101.968057,7.78061916 C112.765028,24.4668464 168.712966,5.8175336 149.082111,28.3930175 C129.451255,50.9685014 146.137482,90.2302125 129.451255,70.599357 C112.765028,50.9685014 102.9496,62.7470148 109.8204,83.3594131 C116.691199,103.971811 111.783485,126.547295 99.023429,102.008726 C86.2633729,77.4701564 67.6140601,127.528838 61.7248034,96.1194692 C55.8355468,64.7101003 18.5369212,108.879525 7.73995062,60.7839292" id="border" stroke="#B5293C" stroke-width="5"></path>
            </g>
        </g>
    </g>
</svg>