<?xml version="1.0" encoding="UTF-8" standalone="no"?>
<svg width="177px" height="118px" viewBox="0 0 177 118" version="1.1" xmlns="http://www.w3.org/2000/svg" xmlns:xlink="http://www.w3.org/1999/xlink">
    <!-- Generator: Sketch 3.8.2 (29753) - http://www.bohemiancoding.com/sketch -->
    <title>Group 4</title>
    <desc>Created with Sketch.</desc>
    <defs></defs>
    <g id="Welcome" stroke="none" stroke-width="1" fill="none" fill-rule="evenodd">
        <g id="checkyourself-copy-3" transform="translate(-508.000000, -1127.000000)">
            <g id="Group-4" transform="translate(508.000000, 1129.000000)">
                <path d="M56.4259369,99.2525675 C27.9740381,63.6890474 9.50836414,79.4028252 1.38801501,58.6508219 C-6.73233413,37.8988186 23.0422794,34.2897745 32.0648895,41.5078626 C41.0874996,48.7259507 55.5236759,38.8010796 65.448547,30.6807304 C75.3734182,22.5603813 119.584208,18.9513373 134.922645,36.9965575 C150.261082,55.0417778 190.862828,47.8236897 171.013086,74.8915202 C151.163343,101.959351 141.238472,110.0797 120.486469,98.3503065 C99.7344656,86.6209133 87.1028114,91.1322184 81.6892453,96.5457845 C76.2756792,101.959351 63.644025,108.275178 56.4259369,99.2525675" id="diameter" fill="#7C5A63" opacity="0.574160448"></path>
                <path d="M42.5,0.5 L42.5,113.5" id="Line" stroke="#B5293C" stroke-width="5" stroke-linecap="square"></path>
                <path d="M139.5,0.5 L139.5,113.5" id="Line-Copy" stroke="#B5293C" stroke-width="5" stroke-linecap="square"></path>
                <path d="M116.5,13.5 L65.5,13.5" id="Line" stroke="#B5293C" stroke-linecap="square"></path>
                <path d="M65.5,13.5 L73.5,5.5" id="Line" stroke="#B5293C" stroke-linecap="square"></path>
                <path d="M65.5,13.5 L73.5,21.5" id="Line" stroke="#B5293C" stroke-linecap="square"></path>
            </g>
        </g>
    </g>
</svg>