<?xml version="1.0" encoding="UTF-8" standalone="no"?>
<svg width="27px" height="28px" viewBox="0 0 27 28" version="1.1" xmlns="http://www.w3.org/2000/svg" xmlns:xlink="http://www.w3.org/1999/xlink">
    <!-- Generator: Sketch 39 (31667) - http://www.bohemiancoding.com/sketch -->
    <title>beard</title>
    <desc>Created with Sketch.</desc>
    <defs></defs>
    <g id="Page-1" stroke="none" stroke-width="1" fill="none" fill-rule="evenodd">
        <g id="beard" transform="translate(1.000000, 1.000000)">
            <path d="M20.5999313,9.82037845 C25.5608237,7.27494891 24.8992505,2.24828086 24.8992505,2.24828086 L24.8649479,2.09551668 L24.6987235,2.20230459 C24.5009163,2.33949832 24.2837668,2.47272586 24.0493904,2.60169414 C24.7603776,5.42268586 23.0393504,8.34884995 20.5003477,5.15108927 C20.4840276,5.13081873 20.4689162,5.11216373 20.4528982,5.09204032 C20.1721301,4.73936095 19.9046599,4.41209364 19.6485232,4.10539055 C18.3163099,2.51165141 17.3071765,1.51780436 16.550251,0.903076318 C16.4695565,0.836389273 16.3905244,0.774402318 16.3137589,0.716968909 C16.3127012,0.716234409 16.3116435,0.715353364 16.3105856,0.714618864 C15.2598961,-0.0668276818 14.558278,-0.0138006818 14.3988536,0.0117579091 C13.7022221,0.147188955 13.6686751,0.554510273 12.8319617,0.889415682 C12.1354814,0.453451227 12.0127776,0.128093136 11.2850168,0.0142545 C11.0373424,-0.00557522727 10.358089,0.0271806364 9.39156945,0.763238864 C9.39156945,0.763238864 8.74420092,1.28366432 8.35009793,1.62532677 C8.03427146,1.92615445 7.68701354,2.27809873 7.30454629,2.69217768 C6.91089658,3.11800686 6.48052646,3.60832018 6.01056469,4.17295923 C5.77603713,4.45439741 5.53183836,4.75419691 5.27721274,5.07382614 C5.25635914,5.09997209 5.23641219,5.1245025 5.21510524,5.15108927 C2.73005012,8.28098759 1.02866756,5.54416259 1.62435543,2.78148532 C1.43591738,2.68762414 1.256395,2.591706 1.0879039,2.49299641 C1.03350317,2.51738027 1.00479171,2.53118745 1.00479171,2.53118745 C-1.39307121,6.52288059 0.771019695,12.9358816 4.64253768,14.2170423 C8.51435787,15.4980564 10.7994904,16.8954057 9.93436781,20.0648169 C9.06864073,23.234081 17.2098598,27.4647614 15.5565312,25.4977787 C13.9030514,23.530796 15.4737212,23.9936415 21.8401167,19.6549984 C28.206512,15.3162082 15.6391901,12.3658074 20.5999313,9.82037845 L20.5999313,9.82037845 L20.5999313,9.82037845 L20.5999313,9.82037845 Z M10.6064459,4.21639636 C11.2077373,4.22901818 11.813357,4.23646186 12.4249695,4.23646186 C13.3575373,4.23646186 14.278785,4.21995659 15.1897115,4.19050568 C15.1897115,4.19050568 13.196061,5.66983182 10.6064459,4.21639636 L10.6064459,4.21639636 L10.6064459,4.21639636 L10.6064459,4.21639636 Z" stroke="#E8CFBB" stroke-linecap="square" stroke-linejoin="round" fill="#B5293C"></path>
            <ellipse id="Oval" fill="#E8CFBB" cx="12.5" cy="4.72727273" rx="4.16666667" ry="2.36363636"></ellipse>
            <path d="M20.5999313,9.82037845 C25.5608237,7.27494891 24.8992505,2.24828086 24.8992505,2.24828086 L24.8649479,2.09551668 L24.6987235,2.20230459 C24.5009163,2.33949832 24.2837668,2.47272586 24.0493904,2.60169414 C24.7603776,5.42268586 23.0393504,8.34884995 20.5003477,5.15108927 C20.4840276,5.13081873 20.4689162,5.11216373 20.4528982,5.09204032 C20.1721301,4.73936095 19.9046599,4.41209364 19.6485232,4.10539055 C18.3163099,2.51165141 17.3071765,1.51780436 16.550251,0.903076318 C16.4695565,0.836389273 16.3905244,0.774402318 16.3137589,0.716968909 C16.3127012,0.716234409 16.3116435,0.715353364 16.3105856,0.714618864 C15.2598961,-0.0668276818 14.558278,-0.0138006818 14.3988536,0.0117579091 C13.7022221,0.147188955 13.6686751,0.554510273 12.8319617,0.889415682 C12.1354814,0.453451227 12.0127776,0.128093136 11.2850168,0.0142545 C11.0373424,-0.00557522727 10.358089,0.0271806364 9.39156945,0.763238864 C9.39156945,0.763238864 8.74420092,1.28366432 8.35009793,1.62532677 C8.03427146,1.92615445 7.68701354,2.27809873 7.30454629,2.69217768 C6.91089658,3.11800686 6.48052646,3.60832018 6.01056469,4.17295923 C5.77603713,4.45439741 5.53183836,4.75419691 5.27721274,5.07382614 C5.25635914,5.09997209 5.23641219,5.1245025 5.21510524,5.15108927 C2.73005012,8.28098759 1.02866756,5.54416259 1.62435543,2.78148532 C1.43591738,2.68762414 1.256395,2.591706 1.0879039,2.49299641 C1.03350317,2.51738027 1.00479171,2.53118745 1.00479171,2.53118745 C-1.39307121,6.52288059 0.771019695,12.9358816 4.64253768,14.2170423 C8.51435787,15.4980564 10.7994904,16.8954057 9.93436781,20.0648169 C9.06864073,23.234081 17.2098598,27.4647614 15.5565312,25.4977787 C13.9030514,23.530796 15.4737212,23.9936415 21.8401167,19.6549984 C28.206512,15.3162082 15.6391901,12.3658074 20.5999313,9.82037845 L20.5999313,9.82037845 L20.5999313,9.82037845 L20.5999313,9.82037845 Z M10.6064459,4.21639636 C11.2077373,4.22901818 11.813357,4.23646186 12.4249695,4.23646186 C13.3575373,4.23646186 14.278785,4.21995659 15.1897115,4.19050568 C15.1897115,4.19050568 13.196061,5.66983182 10.6064459,4.21639636 L10.6064459,4.21639636 L10.6064459,4.21639636 L10.6064459,4.21639636 Z" fill="#B5293C"></path>
        </g>
    </g>
</svg>