<?xml version="1.0" encoding="UTF-8" standalone="no"?>
<svg width="53px" height="72px" viewBox="0 0 53 72" version="1.1" xmlns="http://www.w3.org/2000/svg" xmlns:xlink="http://www.w3.org/1999/xlink">
    <!-- Generator: Sketch 3.8.3 (29802) - http://www.bohemiancoding.com/sketch -->
    <title>Mask</title>
    <desc>Created with Sketch.</desc>
    <defs>
        <path d="M54.1536423,26.4526836 C52.1914678,24.4815336 50.2513867,23.5232302 48.2256935,23.5232302 C44.8384914,23.5232302 42.0885472,26.2124174 39.4283578,28.8132307 C37.5041563,30.6939356 35.6690191,32.4862668 33.8580466,32.9971778 L34.0265092,1.35245295 C34.0265092,-1.64673292 31.5858734,-4.0859879 28.5866875,-4.0859879 C25.5888825,-4.0859879 23.1489371,-1.64673292 23.1489371,1.35245295 C23.1489371,1.45463515 23.1606742,1.55060358 23.1765539,1.63000191 L23.1765539,12.9908683 C22.2286068,12.2065508 21.013467,11.7343033 19.6871696,11.7343033 C16.7660012,11.7343033 14.3757661,14.049973 14.2528713,16.9428342 C13.3118284,16.1612784 12.1035928,15.6911021 10.7876517,15.6911021 C7.78915624,15.6911021 5.34852041,18.1303571 5.34852041,21.1281621 L5.34852041,24.5319343 C4.44337938,23.7966367 3.33456434,23.4162151 2.25543739,23.4162151 C-0.0650653048,23.4162151 -2.56162518,25.1747156 -2.56162518,29.0410694 C-2.56162518,39.4615833 -0.167937932,45.4647879 1.94474824,50.762383 C3.60520911,54.9269984 5.03506959,58.5544668 5.11930087,63.6483879 L5.11930087,65.0975801 L6.12524327,65.0975801 L7.09597424,65.0975801 L31.138481,65.0975801 C31.1681691,65.0975801 31.1964763,65.0913663 31.2247835,65.0886047 L32.1271629,65.0886047 L32.1271629,64.1075174 C32.1271629,53.8395864 34.7645685,51.1524705 38.1034412,47.75146 C38.9947738,46.8387244 39.9185562,45.8976815 40.8437194,44.7571071 C42.3543591,42.8957339 43.5446437,41.0419554 44.8094937,39.0818521 C47.1286156,35.4785485 49.5278262,31.7530404 54.0921949,27.9060184 C54.3027731,27.7251283 54.4305009,27.4682919 54.4443093,27.1914334 C54.4532847,26.9166461 54.3483408,26.6473822 54.1536423,26.4526836 L54.1536423,26.4526836 Z" id="path-1"></path>
    </defs>
    <g id="Page-1" stroke="none" stroke-width="1" fill="none" fill-rule="evenodd">
        <mask id="mask-2" fill="white">
            <use xlink:href="#path-1"></use>
        </mask>
        <use id="Mask" stroke="#E8CFBB" fill="#000000" transform="translate(25.941608, 30.505796) rotate(-38.000000) translate(-25.941608, -30.505796) " xlink:href="#path-1"></use>
    </g>
</svg>