<?xml version="1.0" encoding="UTF-8" standalone="no"?>
<svg width="132px" height="178px" viewBox="0 0 132 178" version="1.1" xmlns="http://www.w3.org/2000/svg" xmlns:xlink="http://www.w3.org/1999/xlink">
    <!-- Generator: Sketch 3.8.3 (29802) - http://www.bohemiancoding.com/sketch -->
    <title>why</title>
    <desc>Created with Sketch.</desc>
    <defs></defs>
    <g id="Page-1" stroke="none" stroke-width="1" fill="none" fill-rule="evenodd">
        <g id="why" fill="#B5293C">
            <path d="M58,107.1 L48.1,107.1 L30.4,140.8 L30.1,140.8 L12.5,107.1 L2,107.1 L25.2,149.6 L25.2,176 L34.8,176 L34.8,149.5 L58,107.1 Z M111.9,149.7 C111.9,135.4 130,137.5 130,121.5 C130,113.5 122.5,105.9 109.9,105.9 C101.6,105.9 94.4,109.1 88.6,115.9 L95,120.7 C99.1,115.7 104.3,113.5 109,113.5 C115.5,113.5 120.4,116.6 120.4,122.1 C120.4,133.1 102.8,132.9 102.8,149.2 L102.8,153 L111.9,153 L111.9,149.7 Z M100.7,170.2 C100.7,174.1 103.7,177.2 107.6,177.2 C111.6,177.2 114.6,174.1 114.6,170.2 C114.6,166.4 111.6,163.3 107.6,163.3 C103.7,163.3 100.7,166.4 100.7,170.2 L100.7,170.2 Z" id="Y?"></path>
            <path d="M59.6,0.1 L50.9,0.1 L43.4,57.8 L43,57.8 L35.6,8.1 L24.6,8.1 L15.5,58.1 L15.1,58.1 L9.9,0.1 L0.4,0.1 L8.6,69 L21.1,69 L29.6,18.7 L30,18.7 L37.4,69 L49.4,69 L59.6,0.1 Z M132,69 L132,0.1 L122.5,0.1 L122.5,28.9 L97.5,28.9 L97.5,0.1 L88,0.1 L88,69 L97.5,69 L97.5,36.7 L122.5,36.7 L122.5,69 L132,69 Z" id="WH"></path>
        </g>
    </g>
</svg>